<svg height="496pt" viewBox="0 0 496 496" width="496pt" xmlns="http://www.w3.org/2000/svg"><path d="m464 440h24v48h-24zm0 0" fill="#4472b2"/><path d="m464 488h-224l-112-112h48l64 64h112c8.839844 0 16-7.160156 16-16s-7.160156-16-16-16h-56l-32-32h128l72 64zm0 0" fill="#efbe9a"/><path d="m8 312h480v32h-480zm0 0" fill="#b8cbd9"/><path d="m192 208c0-21.273438 2.328125-42.472656 6.945312-63.238281l9.054688-40.761719h-56v-48h-64v48h-56l9.054688 40.761719c4.617187 20.765625 6.945312 41.964843 6.945312 63.238281s-2.328125 42.472656-6.945312 63.238281l-9.054688 40.761719h176l-9.054688-40.761719c-4.617187-20.765625-6.945312-41.964843-6.945312-63.238281zm0 0" fill="#af4a47"/><path d="m38.070312 284.679688c72.640626-15.925782 130.007813-88.480469 143.074219-180.679688h-29.144531v-48h-64v48h-56l9.054688 40.761719c4.617187 20.765625 6.945312 41.964843 6.945312 63.238281s-2.328125 42.472656-6.945312 63.238281zm0 0" fill="#e4725f"/><path d="m104 152c0 8.835938-7.164062 16-16 16s-16-7.164062-16-16 7.164062-16 16-16 16 7.164062 16 16zm0 0" fill="#e8eff4"/><path d="m168 208c0 13.253906-10.746094 24-24 24s-24-10.746094-24-24 10.746094-24 24-24 24 10.746094 24 24zm0 0" fill="#e8eff4"/><path d="m152 8h-64c-8.839844 0-16 7.160156-16 16v32h96v-32c0-8.839844-7.160156-16-16-16zm0 0" fill="#b8cbd9"/><path d="m344 168h-112l16 144h80zm0 0" fill="#b8cbd9"/><path d="m247.007812 303.0625c42.902344-17.070312 72.992188-56.78125 72.992188-103.0625 0-11.128906-1.800781-21.855469-5.03125-32h-82.96875zm0 0" fill="#e8eff4"/><path d="m244.449219 280 3.550781 32h80l3.550781-32zm0 0" fill="#c18e59"/><path d="m344 120c0 8.835938-7.164062 16-16 16s-16-7.164062-16-16 7.164062-16 16-16 16 7.164062 16 16zm0 0" fill="#8bd2f5"/><path d="m400 64c0 13.253906-10.746094 24-24 24s-24-10.746094-24-24 10.746094-24 24-24 24 10.746094 24 24zm0 0" fill="#8bd2f5"/><path d="m488 352h-480c-4.414062 0-8-3.574219-8-8v-32c0-4.425781 3.585938-8 8-8h480c4.414062 0 8 3.574219 8 8v32c0 4.425781-3.585938 8-8 8zm-472-16h464v-16h-464zm0 0"/><path d="m464 496h-224c-2.121094 0-4.160156-.839844-5.65625-2.34375l-112-112c-2.289062-2.289062-2.976562-5.726562-1.734375-8.71875 1.238281-2.992188 4.160156-4.9375 7.390625-4.9375h48c2.121094 0 4.160156.839844 5.65625 2.34375l61.65625 61.65625h108.6875c4.40625 0 8-3.585938 8-8s-3.59375-8-8-8h-56c-2.121094 0-4.160156-.839844-5.65625-2.34375l-32-32c-2.289062-2.289062-2.976562-5.726562-1.734375-8.71875 1.238281-2.992188 4.160156-4.9375 7.390625-4.9375h128c1.960938 0 3.847656.71875 5.320312 2.023438l72 64c1.703126 1.511718 2.679688 3.695312 2.679688 5.976562v48c0 4.425781-3.585938 8-8 8zm-220.6875-16h212.6875v-36.40625l-67.039062-59.59375h-105.648438l16 16h52.6875c13.230469 0 24 10.769531 24 24s-10.769531 24-24 24h-112c-2.121094 0-4.160156-.839844-5.65625-2.34375l-61.65625-61.65625h-25.375zm0 0"/><path d="m464 432h32v16h-32zm0 0"/><path d="m208 320h-176c-2.425781 0-4.71875-1.105469-6.238281-2.992188-1.515625-1.894531-2.097657-4.375-1.570313-6.742187l9.054688-40.769531c4.480468-20.152344 6.753906-40.847656 6.753906-61.496094s-2.273438-41.34375-6.753906-61.503906l-9.054688-40.769532c-.527344-2.367187.046875-4.839843 1.570313-6.742187 1.519531-1.878906 3.8125-2.984375 6.238281-2.984375h80v16h-70.023438l6.894532 31.03125c4.730468 21.289062 7.128906 43.144531 7.128906 64.96875s-2.398438 43.679688-7.136719 64.96875l-6.886719 31.03125h156.054688l-6.894531-31.03125c-4.738281-21.289062-7.136719-43.144531-7.136719-64.96875s2.398438-43.679688 7.136719-64.96875l6.886719-31.03125h-46.023438c-4.414062 0-8-3.574219-8-8v-48h16v40h48c2.425781 0 4.71875 1.105469 6.238281 2.992188 1.515625 1.894531 2.097657 4.375 1.570313 6.742187l-9.054688 40.769531c-4.480468 20.152344-6.753906 40.847656-6.753906 61.496094s2.273438 41.34375 6.753906 61.503906l9.054688 40.769532c.527344 2.367187-.046875 4.839843-1.570313 6.742187-1.519531 1.878906-3.8125 2.984375-6.238281 2.984375zm0 0"/><path d="m80 56h16v48h-16zm0 0"/><path d="m168 64h-96c-4.414062 0-8-3.574219-8-8v-32c0-13.230469 10.769531-24 24-24h64c13.230469 0 24 10.769531 24 24v32c0 4.425781-3.585938 8-8 8zm-88-16h80v-24c0-4.414062-3.59375-8-8-8h-64c-4.40625 0-8 3.585938-8 8zm0 0"/><path d="m328 320h-80c-4.078125 0-7.503906-3.0625-7.953125-7.121094l-16-144c-.253906-2.253906.472656-4.519531 1.992187-6.214844 1.511719-1.695312 3.679688-2.664062 5.960938-2.664062h112c2.28125 0 4.449219.96875 5.960938 2.664062 1.519531 1.695313 2.238281 3.960938 1.992187 6.214844l-16 144c-.449219 4.058594-3.875 7.121094-7.953125 7.121094zm-72.839844-16h65.679688l14.222656-128h-94.125zm0 0"/><path d="m248 272h80v16h-80zm0 0"/><path d="m88 176c-13.230469 0-24-10.769531-24-24s10.769531-24 24-24 24 10.769531 24 24-10.769531 24-24 24zm0-32c-4.40625 0-8 3.585938-8 8s3.59375 8 8 8 8-3.585938 8-8-3.59375-8-8-8zm0 0"/><path d="m144 240c-17.648438 0-32-14.351562-32-32s14.351562-32 32-32 32 14.351562 32 32-14.351562 32-32 32zm0-48c-8.824219 0-16 7.175781-16 16s7.175781 16 16 16 16-7.175781 16-16-7.175781-16-16-16zm0 0"/><path d="m128 272h-40c-4.414062 0-8-3.574219-8-8v-72h16v64h32zm0 0"/><path d="m328 144c-13.230469 0-24-10.769531-24-24s10.769531-24 24-24 24 10.769531 24 24-10.769531 24-24 24zm0-32c-4.40625 0-8 3.585938-8 8s3.59375 8 8 8 8-3.585938 8-8-3.59375-8-8-8zm0 0"/><path d="m376 96c-17.648438 0-32-14.351562-32-32s14.351562-32 32-32 32 14.351562 32 32-14.351562 32-32 32zm0-48c-8.824219 0-16 7.175781-16 16s7.175781 16 16 16 16-7.175781 16-16-7.175781-16-16-16zm0 0"/><path d="m464 480h32v16h-32zm0 0"/></svg>