<?xml version="1.0" encoding="iso-8859-1"?>
<!-- Generator: Adobe Illustrator 19.0.0, SVG Export Plug-In . SVG Version: 6.00 Build 0)  -->
<svg version="1.1" id="Capa_1" xmlns="http://www.w3.org/2000/svg" xmlns:xlink="http://www.w3.org/1999/xlink" x="0px" y="0px"
	 viewBox="0 0 557.461 557.461" style="enable-background:new 0 0 557.461 557.461;" xml:space="preserve">
<g>
	<g id="Drink-brandy-Bottle-glass">
		
			<linearGradient id="SVGID_1_" gradientUnits="userSpaceOnUse" x1="167.2258" y1="593.671" x2="167.2258" y2="1.3386" gradientTransform="matrix(1 0 0 -1 0 572.7235)">
			<stop  offset="0" style="stop-color:#FFF33B"/>
			<stop  offset="0.014" style="stop-color:#FEE72E"/>
			<stop  offset="0.042" style="stop-color:#FED51B"/>
			<stop  offset="0.07" style="stop-color:#FDCA10"/>
			<stop  offset="0.1" style="stop-color:#FDC70C"/>
			<stop  offset="0.4" style="stop-color:#F3903F"/>
			<stop  offset="0.8" style="stop-color:#ED683C"/>
			<stop  offset="1" style="stop-color:#E93E3A"/>
		</linearGradient>
		<path style="fill:url(#SVGID_1_);" d="M55.742,232.279v260.129c0,5.131,4.159,9.29,9.29,9.29h204.387
			c5.131,0,9.29-4.159,9.29-9.29V232.279c0-5.131-4.159-9.29-9.29-9.29H65.032C59.901,222.989,55.742,227.148,55.742,232.279z
			 M74.323,241.569h185.806v241.548H74.323V241.569z"/>
		
			<linearGradient id="SVGID_2_" gradientUnits="userSpaceOnUse" x1="167.2258" y1="594.7022" x2="167.2258" y2="1.3943" gradientTransform="matrix(1 0 0 -1 0 572.7235)">
			<stop  offset="0" style="stop-color:#FFF33B"/>
			<stop  offset="0.014" style="stop-color:#FEE72E"/>
			<stop  offset="0.042" style="stop-color:#FED51B"/>
			<stop  offset="0.07" style="stop-color:#FDCA10"/>
			<stop  offset="0.1" style="stop-color:#FDC70C"/>
			<stop  offset="0.4" style="stop-color:#F3903F"/>
			<stop  offset="0.8" style="stop-color:#ED683C"/>
			<stop  offset="1" style="stop-color:#E93E3A"/>
		</linearGradient>
		<path style="fill:url(#SVGID_2_);" d="M325.161,167.247H222.968V74.343h18.581c5.131,0,9.29-4.159,9.29-9.29V9.311
			c0-5.131-4.159-9.29-9.29-9.29H92.903c-5.131,0-9.29,4.159-9.29,9.29v55.742c0,5.131,4.159,9.29,9.29,9.29h18.581v92.903H9.29
			c-5.131,0-9.29,4.159-9.29,9.29V548.15c0,5.131,4.159,9.29,9.29,9.29h315.871c5.131,0,9.29-4.159,9.29-9.29V176.537
			C334.452,171.406,330.292,167.247,325.161,167.247z M102.194,55.763V18.601h130.065v37.161H102.194z M315.871,538.859H18.581
			V185.827h102.194c5.131,0,9.29-4.159,9.29-9.29V74.343h74.323v102.194c0,5.131,4.159,9.29,9.29,9.29h102.194V538.859z"/>
		
			<linearGradient id="SVGID_3_" gradientUnits="userSpaceOnUse" x1="455.2466" y1="594.5535" x2="455.2466" y2="2.4813" gradientTransform="matrix(1 0 0 -1 0 572.7235)">
			<stop  offset="0" style="stop-color:#FFF33B"/>
			<stop  offset="0.014" style="stop-color:#FEE72E"/>
			<stop  offset="0.042" style="stop-color:#FED51B"/>
			<stop  offset="0.07" style="stop-color:#FDCA10"/>
			<stop  offset="0.1" style="stop-color:#FDC70C"/>
			<stop  offset="0.4" style="stop-color:#F3903F"/>
			<stop  offset="0.8" style="stop-color:#ED683C"/>
			<stop  offset="1" style="stop-color:#E93E3A"/>
		</linearGradient>
		<path style="fill:url(#SVGID_3_);" d="M555.013,356.11c-1.76-1.945-4.261-3.055-6.884-3.057H362.323
			c-5.131,0-9.29,4.159-9.29,9.29c0,0.31,0.016,0.62,0.047,0.929l18.581,185.806c0.477,4.747,4.473,8.361,9.244,8.361h148.645
			c4.789,0.024,8.811-3.596,9.29-8.361l18.581-185.806C557.668,360.652,556.794,358.048,555.013,356.11z M521.187,538.859H389.311
			l-16.723-167.226H537.91L521.187,538.859z"/>
		
			<linearGradient id="SVGID_4_" gradientUnits="userSpaceOnUse" x1="408.9641" y1="596.5637" x2="408.9641" y2="1.7693" gradientTransform="matrix(1 0 0 -1 5.802144e-06 572.7231)">
			<stop  offset="0" style="stop-color:#FFF33B"/>
			<stop  offset="0.014" style="stop-color:#FEE72E"/>
			<stop  offset="0.042" style="stop-color:#FED51B"/>
			<stop  offset="0.07" style="stop-color:#FDCA10"/>
			<stop  offset="0.1" style="stop-color:#FDC70C"/>
			<stop  offset="0.4" style="stop-color:#F3903F"/>
			<stop  offset="0.8" style="stop-color:#ED683C"/>
			<stop  offset="1" style="stop-color:#E93E3A"/>
		</linearGradient>
		<polygon style="fill:url(#SVGID_4_);" points="394.144,400.424 412.633,398.575 423.784,510.06 405.295,511.909 		"/>
	</g>
</g>
<g>
</g>
<g>
</g>
<g>
</g>
<g>
</g>
<g>
</g>
<g>
</g>
<g>
</g>
<g>
</g>
<g>
</g>
<g>
</g>
<g>
</g>
<g>
</g>
<g>
</g>
<g>
</g>
<g>
</g>
</svg>
