<svg height="512pt" viewBox="0 -68 512.12538 512" width="512pt" xmlns="http://www.w3.org/2000/svg"><path d="m431.980469 8.09375h40v32h-40zm0 0" fill="#ed5565"/><path d="m431.980469 40.09375h40v40h-40zm0 0" fill="#da4453"/><path d="m424.140625 208.09375h56v72h-56zm0 0" fill="#ed5565"/><path d="m480.140625 208.09375h-56v72h56zm23.921875-35.917969.078125 179.839844c0 8.800781-7.191406 16-16 16h-72.078125c-8.882812 0-16-7.199219-16-16v-179.839844c0-21.511719 13.117188-40 31.757812-47.914062l.167969-.085938v-44.082031h40v44.082031l.234375.085938c18.71875 7.832031 31.839844 26.320312 31.839844 47.914062zm0 0" fill="#656d78"/><path d="m504.0625 172.175781c0-21.59375-13.121094-40.082031-31.839844-47.914062l-.242187-.085938v-44.082031h-16.015625v52.089844l.234375.085937c18.726562 7.832031 31.839843 26.320313 31.839843 47.914063l.078126 171.832031c0 8.800781-7.191407 16-16 16h16.015624c8.808594 0 16-7.199219 16-16zm0 0" fill="#434a54"/><path d="m167.980469 343.855469 192 .078125 7.921875 24v.082031l-207.921875-.160156v-.082031zm0 0" fill="#e9573f"/><path d="m359.980469 343.933594h-16.015625l7.929687 24v.066406l16.007813.015625v-.082031zm0 0" fill="#dd4b37"/><path d="m359.980469 304.015625v39.917969l-192-.078125v-40l191.921875.160156zm0 0" fill="#fc6e51"/><path d="m359.902344 304.015625h-15.9375v39.910156l16.015625.007813v-39.917969zm0 0" fill="#e9573f"/><path d="m263.980469 208.015625c35.441406 0 64.160156 14.320313 64.160156 32s-28.71875 32-64.160156 32c-35.445313 0-64.238281-14.320313-64.238281-32s28.800781-32 64.238281-32zm0 0" fill="#e6e9ed"/><path d="m311.980469 32.09375c-8.878907 0-15.917969 7.128906-16 15.921875h-64c-.078125-8.882813-7.199219-15.921875-16-15.921875v-24h96zm0 0" fill="#e6e9ed"/><path d="m295.980469 48.09375v24h-64v-24.078125h64zm0 0" fill="#656d78"/><path d="m319.902344 128.015625c22.160156 0 40 17.917969 40 40.078125v8l-191.921875-.160156v-8c0-22.167969 17.921875-40 40-40l23.921875.082031h.078125v-24c-8.878907 0-15.917969-7.039063-16-15.921875v-.078125c.082031-8.882813 7.121093-15.921875 16-15.921875h64c8.800781 0 15.921875 7.039062 16 15.921875v.078125c-.078125 8.882812-7.199219 15.921875-16 15.921875v24zm0 0" fill="#fc6e51"/><path d="m319.902344 128.015625h-16.015625c22.160156 0 40 17.917969 40 40.078125v7.984375l16.015625.015625v-8c0-22.160156-17.839844-40.078125-40-40.078125zm0 0" fill="#e9573f"/><path d="m359.980469 176.09375v127.921875h-.078125l-191.921875-.160156v-127.921875l191.921875.160156zm-31.839844 63.921875c0-17.679687-28.71875-32-64.160156-32-35.445313 0-64.238281 14.320313-64.238281 32s28.800781 32 64.238281 32c35.441406 0 64.160156-14.320313 64.160156-32zm0 0" fill="#656d78"/><path d="m359.902344 176.09375h-15.9375v127.90625l15.9375.015625h.078125v-127.921875zm0 0" fill="#434a54"/><path d="m88.140625 220.175781v52h-40v-52c0-11.121093 8.960937-20 20-20s20 8.878907 20 20zm0 0" fill="#fff"/><path d="m87.980469 8.414062v40h-40v-40zm0 0" fill="#656d78"/><path d="m86.542969 8.414062h-14.578125v40h16.015625v-40zm0 0" fill="#434a54"/><path d="m47.980469 48.414062h40v40h-40zm0 0" fill="#434a54"/><path d="m71.964844 48.414062h16.015625v40h-16.015625zm0 0" fill="#353b44"/><path d="m119.980469 344.09375v24h-103.917969v-24h-.082031c.082031-4.480469 3.601562-8 8.082031-8l-16.082031-167.679688h.082031c0-4.480468 1.757812-8.480468 4.640625-11.359374l35.277344-36.640626v-32h40v32l35.28125 36.640626c2.953125 2.878906 4.71875 6.878906 4.71875 11.359374l-16 167.679688c4.402343 0 8 3.601562 8 8zm-31.839844-71.917969v-52c0-11.121093-8.960937-20-20-20s-20 8.878907-20 20v52zm0 0" fill="#a0d468"/><path d="m111.980469 336.09375 16-167.679688c0-4.480468-1.765625-8.480468-4.71875-11.359374l-35.28125-36.640626v-32h-16.015625v40.007813l35.28125 36.640625c2.953125 2.878906 4.71875 6.878906 4.71875 11.359375l-16 159.671875c4.402344 0 8 3.601562 8 8v24h16.015625v-24c0-4.398438-3.597657-8-8-8zm0 0" fill="#8cc152"/><path d="m15.980469 344.09375h.082031v24h103.917969v-24c0-4.398438-3.597657-8-8-8h-87.917969c-4.480469 0-8 3.519531-8.082031 8zm0 0" fill="#8cc152"/><path d="m111.980469 336.09375h-16.015625c4.402344 0 8 3.601562 8 8v24h16.015625v-24c0-4.398438-3.597657-8-8-8zm0 0" fill="#7eaf3f"/><path d="m455.964844 40.09375h16.015625v40h-16.015625zm0 0" fill="#d3374e"/><path d="m455.964844 8.09375h16.015625v32h-16.015625zm0 0" fill="#da4453"/><path d="m231.980469 80.0625c-4.421875 0-8-3.574219-8-8v-24.015625c0-4.425781 3.578125-8 8-8 4.425781 0 8 3.574219 8 8v24.015625c0 4.425781-3.574219 8-8 8zm0 0"/><path d="m295.996094 80.0625c-4.421875 0-8-3.574219-8-8v-24.015625c0-4.425781 3.578125-8 8-8 4.425781 0 8 3.574219 8 8v24.015625c0 4.425781-3.574219 8-8 8zm0 0"/><path d="m295.996094 56.046875h-64.015625c-4.421875 0-8-3.578125-8-8 0-4.425781 3.578125-8 8-8h64.015625c4.425781 0 8 3.574219 8 8 0 4.421875-3.574219 8-8 8zm0 0"/><path d="m295.996094 80.0625h-64.015625c-4.421875 0-8-3.574219-8-8 0-4.421875 3.578125-8 8-8h64.015625c4.425781 0 8 3.578125 8 8 0 4.425781-3.574219 8-8 8zm0 0"/><path d="m319.902344 136.046875c-.007813 0-.007813 0-.015625 0l-23.90625-.046875c-4.421875-.007812-7.992188-3.59375-7.984375-8.015625.007812-4.417969 3.585937-7.984375 8-7.984375h.015625l23.90625.046875c4.421875.007813 7.992187 3.59375 7.984375 8.015625-.007813 4.417969-3.585938 7.984375-8 7.984375zm0 0"/><path d="m368.011719 375.984375-208.023438-.144531c-4.414062 0-7.992187-3.585938-7.992187-8.007813 0-4.417969 3.585937-7.992187 8-7.992187h.007812l208.015625.144531c4.417969 0 7.992188 3.582031 7.992188 8.007813 0 4.414062-3.582031 7.992187-8 7.992187zm0 0"/><path d="m360.011719 351.949219-192.023438-.140625c-4.414062 0-7.992187-3.585938-7.992187-8.011719 0-4.414063 3.585937-7.988281 8-7.988281h.007812l192.015625.140625c4.417969 0 7.992188 3.585937 7.992188 8.007812 0 4.417969-3.582031 7.992188-8 7.992188zm0 0"/><path d="m167.996094 351.78125c-4.421875 0-8-3.574219-8-8v-167.855469c0-4.421875 3.578125-8 8-8 4.425781 0 8 3.578125 8 8v167.855469c0 4.425781-3.574219 8-8 8zm0 0"/><path d="m359.980469 351.925781c-4.421875 0-8-3.574219-8-8v-167.863281c0-4.421875 3.578125-8 8-8 4.425781 0 8 3.578125 8 8v167.855469c0 4.425781-3.574219 8.007812-8 8.007812zm0 0"/><path d="m359.933594 184.054688-191.945313-.144532c-4.414062 0-7.992187-3.582031-7.992187-8.007812 0-4.414063 3.585937-7.992188 8-7.992188h.007812l191.9375.144532c4.414063 0 7.992188 3.585937 7.992188 8.007812 0 4.417969-3.585938 7.992188-8 7.992188zm0 0"/><path d="m359.933594 311.984375-191.945313-.144531c-4.414062 0-7.992187-3.585938-7.992187-8.007813 0-4.417969 3.585937-7.992187 8-7.992187h.007812l191.9375.144531c4.414063 0 7.992188 3.582031 7.992188 8.007813 0 4.414062-3.585938 7.992187-8 7.992187zm0 0"/><path d="m359.933594 184.054688c-4.425782 0-8-3.574219-8-8v-7.984376c0-4.421874 3.574218-8 8-8 4.421875 0 8 3.578126 8 8v7.984376c0 4.425781-3.578125 8-8 8zm0 0"/><path d="m167.980469 183.917969c-4.421875 0-8-3.574219-8-8v-7.984375c0-4.421875 3.578125-8 8-8 4.425781 0 8 3.578125 8 8v7.984375c0 4.417969-3.574219 8-8 8zm0 0"/><path d="m367.933594 375.941406c-3.359375 0-6.488282-2.125-7.59375-5.488281l-7.949219-24.023437c-1.394531-4.191407.878906-8.71875 5.078125-10.109376 4.207031-1.394531 8.730469.886719 10.113281 5.078126l7.953125 24.023437c1.390625 4.191406-.882812 8.722656-5.082031 10.113281-.839844.28125-1.6875.40625-2.519531.40625zm0 0"/><path d="m159.996094 375.808594c-.832032 0-1.6875-.136719-2.527344-.410156-4.183594-1.398438-6.457031-5.929688-5.0625-10.128907l8-24.023437c1.398438-4.183594 5.902344-6.4375 10.128906-5.0625 4.183594 1.398437 6.453125 5.925781 5.0625 10.128906l-8 24.023438c-1.121094 3.351562-4.25 5.472656-7.601562 5.472656zm0 0"/><path d="m311.949219 16.0625h-96c-4.425781 0-8-3.574219-8-8 0-4.421875 3.574219-8 8-8h96c4.425781 0 8 3.578125 8 8 0 4.425781-3.574219 8-8 8zm0 0"/><path d="m231.980469 56.085938c-4.421875 0-8-3.574219-8-8 0-4.421876-3.597657-8.023438-8.03125-8.023438-4.425781 0-8-3.574219-8-8 0-4.421875 3.574219-8 8-8 13.25 0 24.03125 10.777344 24.03125 24.023438 0 4.425781-3.574219 8-8 8zm0 0"/><path d="m295.996094 56.085938c-4.421875 0-8-3.574219-8-8 0-13.207032 10.746094-23.960938 23.953125-23.960938 4.425781 0 8 3.578125 8 8 0 4.425781-3.574219 8-8 8-4.382813 0-7.953125 3.570312-7.953125 7.960938 0 4.425781-3.574219 8-8 8zm0 0"/><path d="m215.949219 40.0625c-4.425781 0-8-3.574219-8-8v-24c0-4.421875 3.574219-8 8-8s8 3.578125 8 8v24c0 4.425781-3.574219 8-8 8zm0 0"/><path d="m311.949219 40.125c-4.425781 0-8-3.574219-8-8v-24.0625c0-4.421875 3.574219-8 8-8s8 3.578125 8 8v24.0625c0 4.425781-3.574219 8-8 8zm0 0"/><path d="m231.980469 136c-4.421875 0-8-3.578125-8-8v-23.953125c0-4.425781 3.578125-8 8-8 4.425781 0 8 3.574219 8 8v23.953125c0 4.421875-3.574219 8-8 8zm0 0"/><path d="m295.996094 136c-4.421875 0-8-3.578125-8-8v-23.953125c0-4.425781 3.578125-8 8-8 4.425781 0 8 3.574219 8 8v23.953125c0 4.421875-3.574219 8-8 8zm0 0"/><path d="m359.933594 176.070312c-4.425782 0-8-3.574218-8-8 0-17.65625-14.367188-32.023437-32.03125-32.023437-4.425782 0-8-3.578125-8-8 0-4.425781 3.574218-8 8-8 26.488281 0 48.03125 21.542969 48.03125 48.023437 0 4.425782-3.578125 8-8 8zm0 0"/><path d="m231.933594 135.992188c-.007813 0-.023438 0-.03125 0l-23.9375-.097657c-4.421875-.015625-7.984375-3.609375-7.96875-8.03125.015625-4.410156 3.59375-7.96875 8-7.96875h.035156l23.933594.097657c4.425781.015624 7.984375 3.605468 7.96875 8.03125-.015625 4.40625-3.59375 7.96875-8 7.96875zm0 0"/><path d="m167.980469 175.933594c-4.421875 0-8-3.574219-8-8 0-26.480469 21.542969-48.023438 48.03125-48.023438 4.425781 0 8 3.578125 8 8 0 4.425782-3.574219 8-8 8-17.664063 0-32.03125 14.367188-32.03125 32.023438 0 4.425781-3.574219 8-8 8zm0 0"/><path d="m263.949219 279.992188c-41.152344 0-72.167969-17.195313-72.167969-39.992188 0-22.800781 31.023438-39.992188 72.167969-39.992188s72.167969 17.191407 72.167969 39.992188c0 22.796875-31.015626 39.992188-72.167969 39.992188zm0-63.984376c-32.152344 0-56.167969 12.664063-56.167969 23.992188s24.023438 23.992188 56.167969 23.992188 56.167969-12.664063 56.167969-23.992188-24.015626-23.992188-56.167969-23.992188zm0 0"/><path d="m311.949219 96.070312c-4.425781 0-8-3.574218-8-8 0-4.414062-3.582031-8-8-8-4.425781 0-8-3.574218-8-8 0-4.421874 3.574219-8 8-8 13.230469 0 24 10.769532 24 24 0 4.425782-3.574219 8-8 8zm0 0"/><path d="m295.949219 112.046875c-4.425781 0-8-3.578125-8-8 0-4.425781 3.574219-8 8-8 4.417969 0 8-3.585937 8-8 0-4.425781 3.574219-8 8-8s8 3.574219 8 8c0 13.230469-10.761719 24-24 24zm0 0"/><path d="m311.949219 96.054688c-4.425781 0-8-3.558594-8-7.984376v-.023437c0-4.425781 3.574219-8 8-8s8 3.574219 8 8c0 4.421875-3.574219 8.007813-8 8.007813zm0 0"/><path d="m215.949219 96.070312c-4.425781 0-8-3.574218-8-8 0-13.230468 10.769531-24 24-24 4.425781 0 8 3.578126 8 8 0 4.425782-3.574219 8-8 8-4.414063 0-8 3.585938-8 8 0 4.425782-3.574219 8-8 8zm0 0"/><path d="m231.949219 112.046875c-13.230469 0-24-10.769531-24-24 0-4.425781 3.574219-8 8-8s8 3.574219 8 8c0 4.414063 3.585937 8 8 8 4.425781 0 8 3.574219 8 8 0 4.421875-3.574219 8-8 8zm0 0"/><path d="m215.949219 96.054688c-4.425781 0-8-3.558594-8-7.984376v-.023437c0-4.425781 3.574219-8 8-8s8 3.574219 8 8c0 4.421875-3.574219 8.007813-8 8.007813zm0 0"/><path d="m239.949219 112.046875h-7.96875c-4.421875 0-8-3.578125-8-8 0-4.425781 3.578125-8 8-8h7.96875c4.425781 0 8 3.574219 8 8 0 4.421875-3.574219 8-8 8zm0 0"/><path d="m295.996094 112.046875h-8.046875c-4.425781 0-8-3.578125-8-8 0-4.425781 3.574219-8 8-8h8.046875c4.425781 0 8 3.574219 8 8 0 4.421875-3.574219 8-8 8zm0 0"/><path d="m288.125 248.152344h-48.246094c-4.425781 0-8-3.578125-8-8 0-4.425782 3.574219-8 8-8h48.246094c4.425781 0 8 3.574218 8 8 0 4.421875-3.574219 8-8 8zm0 0"/><path d="m432.011719 132.175781c-4.421875 0-8-3.578125-8-8v-116.050781c0-4.421875 3.578125-8 8-8 4.425781 0 8 3.578125 8 8v116.050781c0 4.421875-3.574219 8-8 8zm0 0"/><path d="m472.011719 132.132812c-4.421875 0-8-3.574218-8-8v-116.007812c0-4.421875 3.578125-8 8-8 4.425781 0 8 3.578125 8 8v116.007812c0 4.425782-3.574219 8-8 8zm0 0"/><path d="m472.011719 16.125h-40c-4.421875 0-8-3.574219-8-8 0-4.421875 3.578125-8 8-8h40c4.425781 0 8 3.578125 8 8 0 4.425781-3.574219 8-8 8zm0 0"/><path d="m400.03125 359.992188c-4.425781 0-8-3.585938-8-8l.0625-179.839844c0-4.425782 3.582031-8 8-8 4.421875 0 8 3.582031 8 8l-.0625 179.839844c0 4.421874-3.585938 8-8 8zm0 0"/><path d="m504.125 359.992188c-4.414062 0-8-3.578126-8-8l-.0625-179.839844c0-4.417969 3.574219-8 8-8 4.414062 0 8 3.574218 8 8l.0625 179.839844c0 4.414062-3.574219 8-8 8zm0 0"/><path d="m416.03125 375.992188c-13.234375 0-24-10.769532-24-24 0-4.425782 3.574219-8 8-8 4.421875 0 8 3.574218 8 8 0 4.414062 3.582031 8 8 8 4.421875 0 8 3.574218 8 8 0 4.421874-3.578125 8-8 8zm0 0"/><path d="m488.125 375.992188c-4.421875 0-8-3.578126-8-8 0-4.425782 3.578125-8 8-8 4.417969 0 8-3.585938 8-8 0-4.425782 3.578125-8 8-8 4.425781 0 8 3.574218 8 8 0 13.238281-10.769531 24-24 24zm0 0"/><path d="m488.125 375.992188h-72.09375c-4.425781 0-8-3.578126-8-8 0-4.425782 3.574219-8 8-8h72.09375c4.425781 0 8 3.574218 8 8 0 4.421874-3.574219 8-8 8zm0 0"/><path d="m472.011719 48.09375h-40c-4.421875 0-8-3.574219-8-8 0-4.421875 3.578125-8 8-8h40c4.425781 0 8 3.578125 8 8 0 4.425781-3.574219 8-8 8zm0 0"/><path d="m472.011719 88.078125h-40c-4.421875 0-8-3.574219-8-8 0-4.421875 3.578125-8 8-8h40c4.425781 0 8 3.578125 8 8 0 4.425781-3.574219 8-8 8zm0 0"/><path d="m47.996094 128.398438c-4.421875 0-8-3.574219-8-8v-112c0-4.421876 3.578125-8 8-8 4.425781 0 8 3.578124 8 8v112c0 4.425781-3.574219 8-8 8zm0 0"/><path d="m88.011719 128.398438c-4.421875 0-8-3.574219-8-8v-112c0-4.421876 3.578125-8 8-8 4.425781 0 8 3.578124 8 8v112c0 4.425781-3.574219 8-8 8zm0 0"/><path d="m86.550781 16.398438h-38.554687c-4.421875 0-8-3.574219-8-8 0-4.421876 3.578125-8 8-8h38.546875c4.421875 0 8 3.578124 8 8 0 4.425781-3.578125 8-7.992188 8zm0 0"/><path d="m88.011719 56.398438h-40.015625c-4.421875 0-8-3.574219-8-8 0-4.421876 3.578125-8 8-8h40.015625c4.425781 0 8 3.578124 8 8 0 4.425781-3.574219 8-8 8zm0 0"/><path d="m88.011719 96.398438h-40.015625c-4.421875 0-8-3.574219-8-8 0-4.421876 3.578125-8 8-8h40.015625c4.425781 0 8 3.578124 8 8 0 4.425781-3.574219 8-8 8zm0 0"/><path d="m12.734375 165.054688c-2 0-3.992187-.742188-5.546875-2.230469-3.175781-3.066407-3.277344-8.128907-.214844-11.3125l35.265625-36.65625c3.0625-3.183594 8.128907-3.28125 11.3125-.214844 3.175781 3.0625 3.277344 8.125.214844 11.308594l-35.265625 36.65625c-1.574219 1.632812-3.664062 2.449219-5.765625 2.449219zm0 0"/><path d="m8.03125 176.367188c-4.425781 0-8-3.578126-8-8 0-6.402344 2.492188-12.425782 7.023438-16.960938 3.125-3.144531 8.183593-3.128906 11.3125-.015625 3.132812 3.121094 3.132812 8.183594.015624 11.3125-1.511718 1.519531-2.351562 3.527344-2.351562 5.664063 0 4.421874-3.578125 8-8 8zm0 0"/><path d="m123.277344 165.054688c-2.105469 0-4.191406-.824219-5.769532-2.457032l-35.261718-36.65625c-3.066406-3.183594-2.960938-8.246094.214844-11.3125 3.183593-3.0625 8.242187-2.964844 11.3125.21875l35.265624 36.65625c3.0625 3.183594 2.957032 8.246094-.21875 11.3125-1.550781 1.496094-3.542968 2.238282-5.542968 2.238282zm0 0"/><path d="m127.980469 176.367188c-4.421875 0-8-3.578126-8-8 0-2.136719-.832031-4.144532-2.351563-5.664063-3.121094-3.128906-3.121094-8.191406.015625-11.3125s8.191407-3.121094 11.3125.015625c4.527344 4.535156 7.023438 10.558594 7.023438 16.960938 0 4.421874-3.574219 8-8 8zm0 0"/><path d="m111.957031 344.117188c-.246093 0-.503906-.007813-.769531-.039063-4.398438-.414063-7.621094-4.320313-7.199219-8.71875l16.03125-167.753906c.417969-4.398438 4.226563-7.789063 8.722657-7.199219 4.398437.417969 7.625 4.320312 7.199218 8.71875l-16.03125 167.753906c-.386718 4.136719-3.871094 7.238282-7.953125 7.238282zm0 0"/><path d="m119.964844 376.125h-103.933594c-4.425781 0-8-3.574219-8-8 0-4.421875 3.574219-8 8-8h103.933594c4.425781 0 8 3.578125 8 8 0 4.425781-3.574219 8-8 8zm0 0"/><path d="m119.949219 352.117188c-4.425781 0-8-3.574219-8-8v-.015626c-4.425781 0-8-3.566406-8-7.992187 0-4.414063 3.574219-7.992187 8-7.992187 8.824219 0 16 7.175781 16 16 0 4.425781-3.574219 8-8 8zm0 0"/><path d="m24.019531 344.117188c-4.078125 0-7.558593-3.101563-7.949219-7.238282l-16.0312495-167.753906c-.4257815-4.398438 2.8046875-8.300781 7.1992185-8.71875 4.472657-.597656 8.304688 2.808594 8.71875 7.199219l16.03125 167.753906c.425781 4.398437-2.808593 8.304687-7.199219 8.71875-.253906.03125-.519531.039063-.769531.039063zm0 0"/><path d="m16.019531 352.125c-4.421875 0-8.007812-3.566406-8.007812-7.992188 0-8.832031 7.1875-16.015624 16.019531-16.015624 4.421875 0 8 3.578124 8 8 0 4.425781-3.578125 8-8 8 0 4.425781-3.585938 8.007812-8.011719 8.007812zm0 0"/><path d="m16.03125 376.125c-4.425781 0-8-3.574219-8-8v-24.015625c0-4.421875 3.574219-8 8-8 4.421875 0 8 3.578125 8 8v24.015625c0 4.425781-3.578125 8-8 8zm0 0"/><path d="m119.964844 376.125c-4.414063 0-8-3.574219-8-7.992188l-.015625-24.015624c0-4.421876 3.574219-8.007813 7.992187-8.007813h.007813c4.417969 0 8 3.578125 8 7.992187l.015625 24.015626c0 4.425781-3.574219 8.007812-8 8.007812zm0 0"/><path d="m40.011719 344.117188h-15.980469c-4.425781 0-8-3.574219-8-8 0-4.421876 3.574219-8 8-8h15.980469c4.425781 0 8 3.578124 8 8 0 4.425781-3.574219 8-8 8zm0 0"/><path d="m111.949219 344.117188h-15.96875c-4.421875 0-8-3.574219-8-8 0-4.421876 3.578125-8 8-8h15.96875c4.425781 0 8 3.578124 8 8 0 4.425781-3.574219 8-8 8zm0 0"/><path d="m504.0625 180.152344c-4.425781 0-8-3.578125-8-8 0-17.769532-10.578125-33.691406-26.953125-40.5625-4.078125-1.710938-5.992187-6.398438-4.28125-10.472656 1.707031-4.085938 6.417969-6.015626 10.472656-4.277344 22.328125 9.375 36.761719 31.085937 36.761719 55.3125 0 4.421875-3.578125 8-8 8zm0 0"/><path d="m400.09375 180.152344c-4.425781 0-8-3.578125-8-8 0-24.167969 14.382812-45.851563 36.632812-55.265625 4.054688-1.726563 8.765626.175781 10.488282 4.246093 1.71875 4.074219-.175782 8.769532-4.25 10.488282-16.320313 6.90625-26.863282 22.816406-26.863282 40.53125-.007812 4.421875-3.585937 8-8.007812 8zm0 0"/><path d="m480.125 288.109375h-56c-4.421875 0-8-3.574219-8-8v-72c0-4.421875 3.578125-8 8-8h56c4.425781 0 8 3.578125 8 8v72c0 4.425781-3.574219 8-8 8zm-48-16h40v-56h-40zm0 0"/><path d="m88.125 228.132812c-4.421875 0-8-3.574218-8-8 0-6.613281-5.382812-12-12-12s-12 5.386719-12 12c0 4.425782-3.574219 8-8 8-4.421875 0-8-3.574218-8-8 0-15.4375 12.558594-28 28-28s28 12.5625 28 28c0 4.425782-3.574219 8-8 8zm0 0"/><path d="m48.125 280.132812c-4.421875 0-8-3.574218-8-8v-52c0-4.421874 3.578125-8 8-8 4.425781 0 8 3.578126 8 8v52c0 4.425782-3.574219 8-8 8zm0 0"/><path d="m88.125 280.132812h-40c-4.421875 0-8-3.574218-8-8 0-4.421874 3.578125-8 8-8h40c4.425781 0 8 3.578126 8 8 0 4.425782-3.574219 8-8 8zm0 0"/><path d="m88.125 280.132812c-4.421875 0-8-3.574218-8-8v-52c0-4.421874 3.578125-8 8-8 4.425781 0 8 3.578126 8 8v52c0 4.425782-3.574219 8-8 8zm0 0"/></svg>