<?xml version="1.0" encoding="iso-8859-1"?>
<!-- Generator: Adobe Illustrator 21.0.0, SVG Export Plug-In . SVG Version: 6.00 Build 0)  -->
<svg xmlns="http://www.w3.org/2000/svg" xmlns:xlink="http://www.w3.org/1999/xlink" version="1.1" id="Capa_1" x="0px" y="0px" viewBox="0 0 512 512" style="enable-background:new 0 0 512 512;" xml:space="preserve" width="512" height="512">
<g>
	<g>
		<g>
			<g>
				<g>
					<g>
						<g>
							<g>
								<g>
									<g>
										<g>
											<circle style="fill:#65B1FC;" cx="256" cy="256" r="256"/>
										</g>
									</g>
								</g>
							</g>
						</g>
					</g>
				</g>
			</g>
		</g>
	</g>
	<path style="fill:#3992EA;" d="M512,256c0-5.743-0.209-11.437-0.581-17.086L406.618,134.113l-25.424,33.843l-57.739-57.739   l-9.865,8.582L256,61.208L199.952,181.5L85.766,286.182l61.865,61.865l-42.249,25.53l138.115,138.116   C247.64,511.892,251.807,512,256,512C397.385,512,512,397.385,512,256z"/>
	<g>
		<polygon style="fill:#FFFFFF;" points="406.618,134.113 105.382,134.113 105.382,373.577 198.656,373.577 256,452     313.344,373.577 406.618,373.577   "/>
	</g>
	<g>
		<polygon style="fill:#E9EDF5;" points="256,134.113 256,452 313.344,373.577 406.618,373.577 406.618,134.113   "/>
	</g>
	<g>
		<circle style="fill:#333940;" cx="256" cy="228.588" r="33.912"/>
	</g>
	<g>
		<path style="fill:#23272B;" d="M256,194.676v67.825c18.729,0,33.912-15.184,33.912-33.913    C289.912,209.859,274.729,194.676,256,194.676z"/>
	</g>
	<g>
		<path style="fill:#333940;" d="M192.735,330.927c0-34.94,28.325-63.265,63.265-63.265s63.265,28.325,63.265,63.265H192.735z"/>
	</g>
	<g>
		<path style="fill:#23272B;" d="M256,267.662v63.265h63.265C319.265,295.986,290.94,267.662,256,267.662z"/>
	</g>
	<g>
		<polygon style="fill:#FFCE00;" points="256,61.208 276.845,103.444 323.455,110.217 289.728,143.093 297.689,189.515 256,167.598     214.311,189.515 222.272,143.093 188.545,110.217 235.155,103.444   "/>
	</g>
	<g>
		<polygon style="fill:#FFB000;" points="323.455,110.217 276.845,103.444 256,61.208 256,167.598 297.689,189.515 289.728,143.093       "/>
	</g>
	<g>
		<g>
			<polygon style="fill:#FFB000;" points="384.545,157.875 405.39,200.111 452,206.884 418.272,239.76 426.234,286.182      384.545,264.264 342.855,286.182 350.817,239.76 317.09,206.884 363.7,200.111    "/>
		</g>
		<g>
			<polygon style="fill:#FFCE00;" points="127.455,157.875 148.3,200.111 194.91,206.884 161.183,239.76 169.145,286.182      127.455,264.264 85.766,286.182 93.728,239.76 60,206.884 106.61,200.111    "/>
		</g>
	</g>
</g>















</svg>
